<svg width="24" height="24" viewBox="0 0 24 24" fill="none" xmlns="http://www.w3.org/2000/svg">
<path fill-rule="evenodd" clip-rule="evenodd" d="M9.85714 9.60714H12.2803V10.8423H12.3069C12.6763 10.1763 13.7674 9.5 15.1166 9.5C17.706 9.5 18.4286 10.8749 18.4286 13.4214V18.1786H15.8571V13.8903C15.8571 12.7503 15.402 11.75 14.3374 11.75C13.0449 11.75 12.4286 12.6251 12.4286 14.0617V18.1786H9.85714V9.60714ZM5.57143 18.1786H8.14286V9.60714H5.57143V18.1786ZM8.46429 6.60714C8.46429 7.49514 7.74514 8.21429 6.85714 8.21429C5.96914 8.21429 5.25 7.49514 5.25 6.60714C5.25 5.71914 5.96914 5 6.85714 5C7.74514 5 8.46429 5.71914 8.46429 6.60714Z" fill="white"/>
<path fill-rule="evenodd" clip-rule="evenodd" d="M19.6963 3H4.35686C3.62314 3 3 3.58029 3 4.29514V19.704C3 20.4197 3.40886 21 4.14257 21H19.482C20.2166 21 21 20.4197 21 19.704V4.29514C21 3.58029 20.4309 3 19.6963 3ZM9.85714 9.85714H12.2803V11.0923H12.3069C12.6763 10.4263 13.7674 9.75 15.1166 9.75C17.706 9.75 18.4286 11.1249 18.4286 13.6714V18.4286H15.8571V14.1403C15.8571 13.0003 15.402 12 14.3374 12C13.0449 12 12.4286 12.8751 12.4286 14.3117V18.4286H9.85714V9.85714ZM5.57143 18.4286H8.14286V9.85714H5.57143V18.4286ZM8.46429 6.85714C8.46429 7.74514 7.74514 8.46429 6.85714 8.46429C5.96914 8.46429 5.25 7.74514 5.25 6.85714C5.25 5.96914 5.96914 5.25 6.85714 5.25C7.74514 5.25 8.46429 5.96914 8.46429 6.85714Z" fill="#2D64BC"/>
</svg>
